<svg id="avatar" xmlns="http://www.w3.org/2000/svg" width="13.332" height="15.674" viewBox="0 0 13.332 15.674">
  <g id="Group_261" data-name="Group 261">
    <path id="Path_197" data-name="Path 197" d="M140.412,8.445h.1a3,3,0,0,0,2.288-.99c1.25-1.409,1.042-3.824,1.019-4.054A3.311,3.311,0,0,0,142.249.458,3.609,3.609,0,0,0,140.5,0h-.055A3.615,3.615,0,0,0,138.7.445,3.313,3.313,0,0,0,137.108,3.4c-.023.23-.23,2.645,1.019,4.054A2.983,2.983,0,0,0,140.412,8.445Zm-2.438-4.963c0-.01,0-.019,0-.026A2.361,2.361,0,0,1,140.445.88h.039a2.373,2.373,0,0,1,2.467,2.577.064.064,0,0,0,0,.026c0,.023.23,2.23-.8,3.392a2.127,2.127,0,0,1-1.672.695h-.032a2.12,2.12,0,0,1-1.668-.695C137.751,5.719,137.972,3.5,137.975,3.483Z" transform="translate(-133.803)" fill="#e2e2e2"/>
    <path id="Path_198" data-name="Path 198" d="M49.4,263.28v-.01c0-.026,0-.052,0-.081-.019-.643-.062-2.145-1.47-2.626l-.032-.01a9.366,9.366,0,0,1-2.694-1.227.438.438,0,0,0-.5.717,10.11,10.11,0,0,0,2.963,1.354c.756.269.841,1.078.863,1.818a.653.653,0,0,0,0,.081,5.893,5.893,0,0,1-.068,1,11.946,11.946,0,0,1-5.722,1.331,12.014,12.014,0,0,1-5.726-1.334,5.578,5.578,0,0,1-.068-1c0-.026,0-.052,0-.081.023-.74.107-1.548.863-1.818a10.2,10.2,0,0,0,2.963-1.353.438.438,0,1,0-.5-.717,9.264,9.264,0,0,1-2.694,1.227l-.032.01c-1.409.484-1.451,1.986-1.47,2.626a.651.651,0,0,1,0,.081v.01a4.978,4.978,0,0,0,.166,1.47.417.417,0,0,0,.169.2,12.277,12.277,0,0,0,6.336,1.551,12.315,12.315,0,0,0,6.336-1.551.434.434,0,0,0,.169-.2A5.223,5.223,0,0,0,49.4,263.28Z" transform="translate(-36.073 -250.83)" fill="#e2e2e2"/>
  </g>
</svg>
