<svg id="folder_4_" data-name="folder (4)" xmlns="http://www.w3.org/2000/svg" width="12.858" height="11.039" viewBox="0 0 12.858 11.039">
  <path id="Path_202" data-name="Path 202" d="M10.793,35.755H7.747A1.345,1.345,0,0,1,6.4,34.411a.359.359,0,0,0-.361-.361H2.066A2.069,2.069,0,0,0,0,36.116v6.907a2.069,2.069,0,0,0,2.066,2.066h8.727a2.069,2.069,0,0,0,2.066-2.066V37.818A2.066,2.066,0,0,0,10.793,35.755Zm1.344,7.266a1.345,1.345,0,0,1-1.344,1.344H2.066A1.345,1.345,0,0,1,.721,43.02v-6.9a1.345,1.345,0,0,1,1.344-1.344H5.713a2.069,2.069,0,0,0,2.033,1.7h3.046a1.345,1.345,0,0,1,1.344,1.344v5.2Z" transform="translate(0 -34.05)" fill="#e2e2e2"/>
</svg>
