<svg xmlns="http://www.w3.org/2000/svg" width="197.062" height="47" viewBox="0 0 197.062 47">
  <g id="Group_481" data-name="Group 481" transform="translate(332 155)">
    <g id="Layer_2" data-name="Layer 2" transform="translate(-331.993 -154.999)">
      <g id="Layer_1" data-name="Layer 1" transform="translate(-0.007 -0.001)">
        <path id="Path_214" data-name="Path 214" d="M68.777,53.556a1.258,1.258,0,0,1-1.238-1.036,8.167,8.167,0,0,0-16.079,0,1.259,1.259,0,0,1-2.478-.447,10.686,10.686,0,0,1,21.031,0,1.261,1.261,0,0,1-1.021,1.465A1.352,1.352,0,0,1,68.777,53.556Z" transform="translate(-36.463 -32.34)" fill="#f69320"/>
        <path id="Path_215" data-name="Path 215" d="M58.339,34.716a1.391,1.391,0,0,1-1.327-.978A13.839,13.839,0,0,0,30.6,33.7a1.387,1.387,0,1,1-2.647-.829,16.617,16.617,0,0,1,31.71.064,1.383,1.383,0,0,1-.916,1.736A1.337,1.337,0,0,1,58.339,34.716Z" transform="translate(-20.77 -15.829)" fill="#f69320"/>
        <path id="Path_216" data-name="Path 216" d="M49.352,15.737a1.388,1.388,0,0,1-1.289-.875A19.275,19.275,0,0,0,12.318,14.8a1.388,1.388,0,1,1-2.575-1.021A22.054,22.054,0,0,1,45.273,5.967a21.8,21.8,0,0,1,5.36,7.866,1.383,1.383,0,0,1-.766,1.8,1.365,1.365,0,0,1-.516.1Z" transform="translate(-7.153 0.001)" fill="#f69320"/>
        <path id="Path_217" data-name="Path 217" d="M77.68,68.381a122.961,122.961,0,1,1,0,.013Z" transform="translate(-50.805 -49.95)" fill="#f69320"/>
        <path id="Path_218" data-name="Path 218" d="M49.186,87.42H42.524a12.6,12.6,0,0,1-.061,1.483A12.172,12.172,0,0,1,18.19,87.42H9.75c0,.352.028.7.041,1.049A20.592,20.592,0,0,0,50.8,90.156c.015-.115.041-.222.054-.337a20.533,20.533,0,0,0,.112-2.4Z" transform="translate(-7.26 -65.441)" fill="#565757"/>
        <path id="Path_219" data-name="Path 219" d="M63.929,88.561A8.992,8.992,0,0,1,46,87.42H42.816A12.172,12.172,0,0,0,67.088,88.9a12.6,12.6,0,0,0,.061-1.483H63.972a8.575,8.575,0,0,1-.043,1.141Z" transform="translate(-31.886 -65.32)" fill="#777677"/>
        <path id="Path_220" data-name="Path 220" d="M148.525,101.7l6.4,5.674a.946.946,0,0,1,.416,1.4l-1.057,2.06-7.361-3.987A11.855,11.855,0,0,0,148.525,101.7Z" transform="translate(-109.42 -75.969)" fill="#565757"/>
        <path id="Path_221" data-name="Path 221" d="M140.91,124.148a5.939,5.939,0,0,0,1.5-2.348l7.361,3.989-1.069,1.692s-.255.3-.865,0S140.91,124.148,140.91,124.148Z" transform="translate(-104.944 -90.962)" fill="#f69320"/>
        <path id="Path_222" data-name="Path 222" d="M116.934,142.05l.784,8.509a.951.951,0,0,1-.656,1.312l-2.18.766-2.642-7.943a11.9,11.9,0,0,0,4.694-2.644Z" transform="translate(-83.591 -106.127)" fill="#565757"/>
        <path id="Path_223" data-name="Path 223" d="M101.6,153.011a5.962,5.962,0,0,0,2.7-.681l2.644,7.943-1.94.51s-.39.038-.638-.584S101.6,153.011,101.6,153.011Z" transform="translate(-75.667 -113.784)" fill="#f69320"/>
        <path id="Path_224" data-name="Path 224" d="M57.762,151.543l-5.513,6.529a.949.949,0,0,1-1.394.452c-1.021-.5-2.085-1.008-2.085-1.008l3.808-7.455A11.845,11.845,0,0,0,57.762,151.543Z" transform="translate(-36.321 -112.093)" fill="#565757"/>
        <path id="Path_225" data-name="Path 225" d="M44.8,144.28a5.891,5.891,0,0,0,2.381,1.445l-3.808,7.458-1.72-1.021s-.3-.255-.028-.865S44.8,144.28,44.8,144.28Z" transform="translate(-30.915 -107.788)" fill="#f69320"/>
        <path id="Path_226" data-name="Path 226" d="M12.936,122.166l-8.453,1.207a.955.955,0,0,1-1.35-.592c-.434-1.054-.883-2.141-.883-2.141l7.8-3.03a11.873,11.873,0,0,0,2.887,4.556Z" transform="translate(-1.674 -87.833)" fill="#565757"/>
        <path id="Path_227" data-name="Path 227" d="M7.583,107.1a5.949,5.949,0,0,0,.814,2.665L.595,112.8,0,110.888s-.061-.391.551-.666S7.583,107.1,7.583,107.1Z" transform="translate(0.007 -79.983)" fill="#f69320"/>
        <path id="Path_228" data-name="Path 228" d="M215.36,46.88l-6.73-10.6h4.5l4.176,7.026,4.25-7.026h4.375L219.2,46.806v6.975H215.36Z" transform="translate(-155.38 -27.123)" fill="#565757"/>
        <path id="Path_229" data-name="Path 229" d="M271.31,61.472v-.048c0-2.925,2.226-4.275,5.4-4.275a9.538,9.538,0,0,1,3.275.556V57.48c0-1.575-.975-2.45-2.874-2.45a9.878,9.878,0,0,0-3.7.725l-.949-2.9a11.81,11.81,0,0,1,5.2-1.075,6.182,6.182,0,0,1,4.525,1.5,5.83,5.83,0,0,1,1.45,4.273v7.777H279.96V63.874a5.159,5.159,0,0,1-4.048,1.7C273.385,65.574,271.31,64.124,271.31,61.472Zm8.726-.875v-.674a5.87,5.87,0,0,0-2.425-.51c-1.626,0-2.626.651-2.626,1.85v.048c0,1.021.85,1.626,2.075,1.626C278.837,62.947,280.036,61.972,280.036,60.6Z" transform="translate(-202.062 -38.694)" fill="#565757"/>
        <path id="Path_230" data-name="Path 230" d="M332.43,51.62h3.8v1.9a4.736,4.736,0,0,1,3.923-2.149c2.876,0,4.551,1.9,4.551,4.974v8.678h-3.8V57.544c0-1.787-.85-2.726-2.3-2.726s-2.374.926-2.374,2.726V65.02h-3.8Z" transform="translate(-247.582 -38.388)" fill="#565757"/>
        <path id="Path_231" data-name="Path 231" d="M391.228,51.965V45.6h-1.6V42.355h1.6V38.93h3.8v3.425h3.15V45.6h-3.15v5.725c0,.875.375,1.3,1.225,1.3a3.862,3.862,0,0,0,1.876-.475v3.063a5.615,5.615,0,0,1-3,.766C392.8,55.979,391.228,55.053,391.228,51.965Z" transform="translate(-290.183 -29.103)" fill="#565757"/>
        <path id="Path_232" data-name="Path 232" d="M434.09,51.6H437.9v2.7c.766-1.848,2.024-3.063,4.275-2.948v3.974h-.2c-2.524,0-4.084,1.531-4.084,4.724V65h-3.8Z" transform="translate(-323.296 -38.366)" fill="#565757"/>
        <path id="Path_233" data-name="Path 233" d="M469.45,61.472v-.048c0-2.925,2.226-4.275,5.4-4.275a9.566,9.566,0,0,1,3.277.556V57.48c0-1.575-.975-2.45-2.876-2.45a9.865,9.865,0,0,0-3.7.725l-.939-2.9a11.815,11.815,0,0,1,5.2-1.075,6.171,6.171,0,0,1,4.523,1.5,5.831,5.831,0,0,1,1.452,4.273v7.777h-3.675V63.874a5.168,5.168,0,0,1-4.051,1.7C471.525,65.573,469.45,64.124,469.45,61.472Zm8.724-.875v-.674a5.87,5.87,0,0,0-2.425-.51c-1.626,0-2.624.651-2.624,1.85v.048c0,1.021.85,1.626,2.075,1.626C476.974,62.947,478.174,61.972,478.174,60.6Z" transform="translate(-349.631 -38.694)" fill="#565757"/>
        <path id="Path_234" data-name="Path 234" d="M528.7,50l5.824-4.775c2.175-1.787,3.024-2.751,3.024-4.2a2.157,2.157,0,0,0-2.348-2.274c-1.376,0-2.277.75-3.573,2.351l-2.7-2.175c1.725-2.351,3.4-3.627,6.526-3.627,3.624,0,6.023,2.126,6.023,5.4v.051c0,2.925-1.5,4.375-4.594,6.774l-2.851,2.2h7.626v3.318H528.7Z" transform="translate(-393.758 -26.392)" fill="#f69320"/>
        <path id="Path_235" data-name="Path 235" d="M595.663,49.641h-8.55l-.623-2.726,9.6-11.125h3.249V46.51h2.34v3.132h-2.351v3.775h-3.675Zm0-3.127V41.066l-4.65,5.449Z" transform="translate(-436.799 -26.758)" fill="#f69320"/>
        <path id="Path_236" data-name="Path 236" d="M659.857,61.574l-2.7,4.176H653.18l4.7-6.8-4.525-6.6h4.084l2.5,3.923,2.524-3.923h3.966L661.906,58.9l4.724,6.85h-4.084Z" transform="translate(-486.467 -39.12)" fill="#f69320"/>
        <path id="Path_237" data-name="Path 237" d="M723.011,39.628H714.79V36.31h12.6V39.2L719.54,53.8H715.2Z" transform="translate(-532.353 -27.146)" fill="#f69320"/>
        <rect id="Rectangle_1076" data-name="Rectangle 1076" width="144.1" height="0.942" transform="translate(52.962 28.591)" fill="#f69320"/>
        <path id="Path_238" data-name="Path 238" d="M236.34,126.217a.222.222,0,0,1,.219-.217h1.909c1.276,0,2.177.661,2.177,1.787v.018c0,1.23-1.064,1.866-2.3,1.866h-1.582v2a.22.22,0,0,1-.436,0Zm2.042,3.063c1.09,0,1.825-.569,1.825-1.439v-.018c0-.929-.72-1.417-1.774-1.417h-1.659v2.874Z" transform="translate(-176.01 -94.099)" fill="#777677"/>
        <path id="Path_239" data-name="Path 239" d="M263.089,132.235a.2.2,0,0,1,.2-.209.2.2,0,0,1,.209.209v1.041A2.03,2.03,0,0,1,265.215,132a.227.227,0,0,1,0,.452,1.925,1.925,0,0,0-1.718,2.136v1.575a.2.2,0,0,1-.2.209.2.2,0,0,1-.209-.209Z" transform="translate(-195.939 -98.571)" fill="#777677"/>
        <path id="Path_240" data-name="Path 240" d="M279.4,134.094v-.018a2.208,2.208,0,0,1,2.2-2.236,2.182,2.182,0,0,1,2.185,2.22v.015a2.208,2.208,0,0,1-2.2,2.236,2.182,2.182,0,0,1-2.185-2.218Zm3.943,0v-.018a1.787,1.787,0,0,0-1.759-1.85,1.761,1.761,0,0,0-1.741,1.835v.015a1.787,1.787,0,0,0,1.759,1.85,1.759,1.759,0,0,0,1.741-1.833Z" transform="translate(-208.086 -98.452)" fill="#777677"/>
        <path id="Path_241" data-name="Path 241" d="M305.783,127.16h-.462a.189.189,0,0,1-.191-.191.194.194,0,0,1,.191-.186h.462v-.419a1.531,1.531,0,0,1,.375-1.113,1.23,1.23,0,0,1,.9-.334,2.041,2.041,0,0,1,.51.059.194.194,0,0,1,.158.191.186.186,0,0,1-.235.176,2.248,2.248,0,0,0-.434-.051c-.587,0-.863.352-.863,1.082v.408h1.33a.191.191,0,0,1,.194.194.194.194,0,0,1-.194.184h-1.33v3.719a.2.2,0,0,1-.2.209.207.207,0,0,1-.209-.209Zm2.79-1.843a.255.255,0,1,1,.51,0v.143a.255.255,0,1,1-.51,0Zm.048,1.641a.207.207,0,1,1,.411,0v3.92a.2.2,0,0,1-.2.209.2.2,0,0,1-.209-.209Z" transform="translate(-227.25 -93.291)" fill="#777677"/>
        <path id="Path_242" data-name="Path 242" d="M330.891,131.294v-2.808h-.457a.2.2,0,0,1-.194-.191.194.194,0,0,1,.194-.186h.459v-1.189a.2.2,0,0,1,.2-.209.207.207,0,0,1,.209.209v1.189h1.34a.2.2,0,0,1,.194.194.194.194,0,0,1-.194.184H331.3v2.756a.749.749,0,0,0,.855.827,1.82,1.82,0,0,0,.485-.082.189.189,0,0,1,.184.184.184.184,0,0,1-.133.176,1.763,1.763,0,0,1-.6.11A1.081,1.081,0,0,1,330.891,131.294Z" transform="translate(-245.951 -94.629)" fill="#777677"/>
        <path id="Path_243" data-name="Path 243" d="M348.884,135.795a.222.222,0,0,1-.074-.158.2.2,0,0,1,.2-.2.255.255,0,0,1,.133.041,2.4,2.4,0,0,0,1.424.487c.577,0,1.021-.319,1.021-.812v-.018c0-.51-.536-.687-1.131-.855-.7-.2-1.468-.411-1.468-1.171v-.018a1.256,1.256,0,0,1,1.409-1.179,2.935,2.935,0,0,1,1.381.383.227.227,0,0,1,.11.186.2.2,0,0,1-.2.2.207.207,0,0,1-.117-.033,2.369,2.369,0,0,0-1.189-.352c-.587,0-.972.319-.972.748v.015c0,.477.579.653,1.189.829.687.191,1.409.444,1.409,1.2v.018a1.323,1.323,0,0,1-1.475,1.248A2.943,2.943,0,0,1,348.884,135.795Z" transform="translate(-259.782 -98.504)" fill="#777677"/>
        <path id="Path_244" data-name="Path 244" d="M386.646,132.235a.2.2,0,0,1,.2-.209.2.2,0,0,1,.212.209v1.041A2.023,2.023,0,0,1,388.772,132a.227.227,0,0,1,0,.452,1.923,1.923,0,0,0-1.715,2.136v1.575a.207.207,0,1,1-.411,0Z" transform="translate(-287.96 -98.571)" fill="#777677"/>
        <path id="Path_245" data-name="Path 245" d="M403,134.094v-.018a2.208,2.208,0,0,1,2.2-2.236,2.182,2.182,0,0,1,2.185,2.22v.015a2.208,2.208,0,0,1-2.2,2.236A2.182,2.182,0,0,1,403,134.094Zm3.943,0v-.018a1.787,1.787,0,0,0-1.759-1.85,1.761,1.761,0,0,0-1.741,1.835v.015a1.787,1.787,0,0,0,1.759,1.85,1.759,1.759,0,0,0,1.73-1.833Z" transform="translate(-300.14 -98.452)" fill="#777677"/>
        <path id="Path_246" data-name="Path 246" d="M433.619,136.207a.2.2,0,0,1-.2.209.2.2,0,0,1-.209-.209v-.62a1.674,1.674,0,0,1-1.531.9,1.627,1.627,0,0,1-1.71-1.759v-2.437a.2.2,0,0,1,.2-.209.2.2,0,0,1,.209.209v2.363a1.306,1.306,0,0,0,1.358,1.457,1.465,1.465,0,0,0,1.483-1.531v-2.3a.2.2,0,0,1,.2-.209.2.2,0,0,1,.209.209Z" transform="translate(-320.226 -98.623)" fill="#777677"/>
        <path id="Path_247" data-name="Path 247" d="M455.5,132.114a.207.207,0,1,1,.411,0v.62a1.674,1.674,0,0,1,1.531-.9,1.626,1.626,0,0,1,1.708,1.759v2.437a.2.2,0,0,1-.2.209.2.2,0,0,1-.207-.209v-2.369a1.3,1.3,0,0,0-1.358-1.457,1.465,1.465,0,0,0-1.483,1.531v2.3a.2.2,0,0,1-.2.209.2.2,0,0,1-.209-.209Z" transform="translate(-339.233 -98.449)" fill="#777677"/>
        <path id="Path_248" data-name="Path 248" d="M483.96,130.852a.2.2,0,0,1-.2.209.2.2,0,0,1-.209-.209v-.778a2.064,2.064,0,0,1-1.759,1.054,2.121,2.121,0,0,1-2.078-2.218v-.018a2.136,2.136,0,0,1,2.078-2.236,2.057,2.057,0,0,1,1.759,1.021v-2.588a.2.2,0,0,1,.2-.209.2.2,0,0,1,.209.209Zm-3.8-1.975v.015a1.718,1.718,0,0,0,1.674,1.843,1.787,1.787,0,0,0,1.743-1.835v-.015a1.787,1.787,0,0,0-1.743-1.835A1.666,1.666,0,0,0,480.157,128.876Z" transform="translate(-357.273 -93.265)" fill="#777677"/>
        <path id="Path_249" data-name="Path 249" d="M521.593,131.294v-2.808h-.462a.2.2,0,0,1-.191-.191.194.194,0,0,1,.191-.186h.462v-1.189a.2.2,0,0,1,.2-.209.207.207,0,0,1,.209.209v1.189h1.34a.2.2,0,0,1,.191.194.194.194,0,0,1-.191.184H522v2.756a.748.748,0,0,0,.853.827,1.848,1.848,0,0,0,.487-.082.189.189,0,0,1,.184.184.186.186,0,0,1-.135.176,1.751,1.751,0,0,1-.6.11A1.081,1.081,0,0,1,521.593,131.294Z" transform="translate(-387.979 -94.629)" fill="#777677"/>
        <path id="Path_250" data-name="Path 250" d="M540.86,125.089a.2.2,0,0,1,.2-.209.207.207,0,0,1,.209.209v2.463a1.669,1.669,0,0,1,1.531-.9,1.626,1.626,0,0,1,1.707,1.759v2.437a.2.2,0,0,1-.2.209.2.2,0,0,1-.209-.209v-2.369a1.3,1.3,0,0,0-1.355-1.457,1.462,1.462,0,0,0-1.483,1.531v2.3a.2.2,0,0,1-.2.209.2.2,0,0,1-.209-.209Z" transform="translate(-402.807 -93.265)" fill="#777677"/>
        <path id="Path_251" data-name="Path 251" d="M567.105,136.312a2.123,2.123,0,0,1-2.1-2.228v-.015a2.1,2.1,0,0,1,2.027-2.228,2.022,2.022,0,0,1,1.96,2.21.207.207,0,0,1-.2.194h-3.351a1.693,1.693,0,0,0,1.674,1.682,1.894,1.894,0,0,0,1.383-.584.171.171,0,0,1,.133-.059.194.194,0,0,1,.2.191.207.207,0,0,1-.066.143,2.172,2.172,0,0,1-1.667.694Zm1.447-2.437a1.581,1.581,0,0,0-1.531-1.656,1.662,1.662,0,0,0-1.575,1.656Z" transform="translate(-420.801 -98.452)" fill="#777677"/>
        <path id="Path_252" data-name="Path 252" d="M604.322,134.094v-.018a2.218,2.218,0,0,1,2.177-2.236,2.244,2.244,0,0,1,1.608.679.225.225,0,0,1,.059.151.207.207,0,0,1-.209.209.212.212,0,0,1-.143-.051,1.853,1.853,0,0,0-1.322-.6,1.764,1.764,0,0,0-1.725,1.835v.015a1.787,1.787,0,0,0,1.759,1.85,1.894,1.894,0,0,0,1.34-.61.186.186,0,0,1,.133-.066.214.214,0,0,1,.2.2.181.181,0,0,1-.051.128,2.19,2.19,0,0,1-3.828-1.483Z" transform="translate(-450.077 -98.452)" fill="#777677"/>
        <path id="Path_253" data-name="Path 253" d="M629.6,125.089a.2.2,0,0,1,.2-.209.209.209,0,0,1,.212.209v5.763a.2.2,0,0,1-.2.209.2.2,0,0,1-.209-.209Z" transform="translate(-468.905 -93.265)" fill="#777677"/>
        <path id="Path_254" data-name="Path 254" d="M641.539,134.094v-.018a2.208,2.208,0,0,1,2.2-2.236,2.185,2.185,0,0,1,2.187,2.22v.015a2.208,2.208,0,0,1-2.2,2.236,2.182,2.182,0,0,1-2.187-2.218Zm3.946,0v-.018a1.787,1.787,0,0,0-1.759-1.85,1.764,1.764,0,0,0-1.743,1.835v.015a1.787,1.787,0,0,0,1.759,1.85,1.761,1.761,0,0,0,1.743-1.833Z" transform="translate(-477.797 -98.452)" fill="#777677"/>
        <path id="Path_255" data-name="Path 255" d="M667.7,134.094v-.018a2.218,2.218,0,0,1,2.177-2.236,2.244,2.244,0,0,1,1.608.679.225.225,0,0,1,.059.151.207.207,0,0,1-.209.209.222.222,0,0,1-.143-.051,1.853,1.853,0,0,0-1.322-.6,1.764,1.764,0,0,0-1.725,1.835v.015a1.787,1.787,0,0,0,1.758,1.85,1.883,1.883,0,0,0,1.34-.61.192.192,0,0,1,.135-.066.214.214,0,0,1,.2.2.191.191,0,0,1-.048.128,2.192,2.192,0,0,1-3.828-1.483Z" transform="translate(-497.281 -98.452)" fill="#777677"/>
        <path id="Path_256" data-name="Path 256" d="M692.74,125.089a.2.2,0,0,1,.2-.209.207.207,0,0,1,.209.209V129.5l2.621-2.713a.186.186,0,0,1,.143-.059.191.191,0,0,1,.191.194.168.168,0,0,1-.066.14l-1.567,1.593,1.677,2.067a.227.227,0,0,1,.059.153.186.186,0,0,1-.2.191.209.209,0,0,1-.176-.092l-1.641-2.027L693.15,130v.863a.2.2,0,0,1-.2.209.2.2,0,0,1-.209-.209Z" transform="translate(-515.93 -93.265)" fill="#777677"/>
        <path id="Path_257" data-name="Path 257" d="M716.2,146.047a.255.255,0,0,1,.276.276v.222a.276.276,0,0,1-.551,0v-.227a.268.268,0,0,1,.276-.271Z" transform="translate(-533.194 -109.038)" fill="#777677"/>
        <path id="Path_258" data-name="Path 258" d="M728.886,146.049a.268.268,0,0,1,.278.276v.222a.278.278,0,0,1-.554,0v-.227a.268.268,0,0,1,.276-.271Z" transform="translate(-542.645 -109.039)" fill="#777677"/>
        <path id="Path_259" data-name="Path 259" d="M741.588,146.049a.268.268,0,0,1,.276.276v.222a.278.278,0,0,1-.554,0v-.227a.268.268,0,0,1,.278-.271Z" transform="translate(-552.104 -109.039)" fill="#777677"/>
      </g>
    </g>
  </g>
</svg>
