<svg xmlns="http://www.w3.org/2000/svg" width="15.925" height="15.845" viewBox="0 0 15.925 15.845">
  <path id="notification" d="M15.3,12.505c-1.432-1.238-2.756-2.985-2.756-7.345a4.58,4.58,0,0,0-9.161,0c0,4.365-1.324,6.11-2.757,7.347A1.814,1.814,0,0,0,0,13.874a.521.521,0,0,0,.521.521H5.466a2.551,2.551,0,0,0,4.994,0H15.4a.521.521,0,0,0,.521-.521A1.8,1.8,0,0,0,15.3,12.505ZM7.963,15.383a1.511,1.511,0,0,1-1.416-.988H9.378A1.511,1.511,0,0,1,7.963,15.383Zm-6.715-2.03a.767.767,0,0,1,.061-.059C3.492,11.408,4.424,8.975,4.424,5.16a3.538,3.538,0,0,1,7.077,0c0,3.812.932,6.244,3.118,8.134a.774.774,0,0,1,.061.058Z" transform="translate(0 -0.58)" fill="#e2e2e2"/>
</svg>
