<svg id="web-page-home" xmlns="http://www.w3.org/2000/svg" width="17.82" height="15.891" viewBox="0 0 17.82 15.891">
  <g id="Group_12" data-name="Group 12" transform="translate(0 0)">
    <path id="Path_19" data-name="Path 19" d="M.616,35.817H2.067v5.806a.624.624,0,0,0,.622.622H6.94a.624.624,0,0,0,.622-.622V37.372h2.592v4.251a.624.624,0,0,0,.622.622H14.82a.624.624,0,0,0,.622-.622V35.817H17.2a.619.619,0,0,0,.435-1.058L9.532,26.538a.62.62,0,0,0-.871-.01L.191,34.749a.623.623,0,0,0-.145.684A.606.606,0,0,0,.616,35.817Zm8.46-7.963,6.635,6.718H14.82a.624.624,0,0,0-.622.622V41H11.4V36.75a.624.624,0,0,0-.622-.622H6.94a.624.624,0,0,0-.622.622V41H3.311V35.195a.624.624,0,0,0-.622-.622H2.15Z" transform="translate(0 -26.353)" fill="#e2e2e2"/>
  </g>
</svg>
